<svg xmlns="http://www.w3.org/2000/svg" xmlns:xlink="http://www.w3.org/1999/xlink" width="300" height="300" viewBox="0 0 300 300">
  <defs>
    <clipPath id="clip-Logo">
      <rect width="300" height="300"/>
    </clipPath>
  </defs>
  <g id="Logo" clip-path="url(#clip-Logo)">
    <g id="Exclusion_3" data-name="Exclusion 3" transform="translate(715.999 32)" fill="#e21717">
      <path d="M -566.0001220703125 238.0000152587891 C -574.14794921875 238.0000152587891 -582.286376953125 237.1796875 -590.189208984375 235.5618286132812 C -597.8871459960938 233.9875030517578 -605.4630737304688 231.6359405517578 -612.70751953125 228.5722503662109 C -619.8135986328125 225.5668334960938 -626.6713256835938 221.8444671630859 -633.0899658203125 217.5087585449219 C -639.4467163085938 213.2141571044922 -645.4229736328125 208.2830810546875 -650.8524169921875 202.8527526855469 C -656.28759765625 197.4166870117188 -661.2188110351562 191.4402923583984 -665.509033203125 185.0895843505859 C -669.8432006835938 178.6733245849609 -673.5652465820312 171.8159027099609 -676.5716552734375 164.7079772949219 C -679.6337280273438 157.4670104980469 -681.985595703125 149.8905029296875 -683.5618896484375 142.1891937255859 C -685.1798706054688 134.2786102294922 -686.0003051757812 126.1399002075195 -686.0003051757812 117.9999008178711 C -686.0003051757812 109.8599014282227 -685.1798706054688 101.7211837768555 -683.561767578125 93.80989837646484 C -681.9860229492188 86.11036682128906 -679.6340942382812 78.53386688232422 -676.571533203125 71.29147338867188 C -673.564208984375 64.18275451660156 -669.8421020507812 57.32522201538086 -665.5088500976562 50.90997314453125 C -661.2153930664062 44.55615234375 -656.2840576171875 38.5795783996582 -650.8524169921875 33.14707946777344 C -645.4227294921875 27.71747207641602 -639.4462280273438 22.78622245788574 -633.0892944335938 18.49068641662598 C -626.6768188476562 14.15893650054932 -619.8190307617188 10.43686485290527 -612.7069702148438 7.428222179412842 C -605.4656982421875 4.366079330444336 -597.8894653320312 2.014150857925415 -590.1893920898438 0.4380079507827759 C -582.2781372070312 -1.17977774143219 -574.139404296875 -2.000170707702637 -566.0001220703125 -2.000170707702637 C -557.8590698242188 -2.000170707702637 -549.7203979492188 -1.179813504219055 -541.8101806640625 0.4381508231163025 C -534.1101684570312 2.01411509513855 -526.5336303710938 4.366043567657471 -519.291748046875 7.428507804870605 C -512.1805419921875 10.43622207641602 -505.3233032226562 14.15818691253662 -498.9107360839844 18.49082946777344 C -492.5535888671875 22.78593635559082 -486.576904296875 27.71707916259766 -481.1466674804688 33.14736557006836 C -475.7153625488281 38.57861328125 -470.7845458984375 44.55490112304688 -466.4911804199219 50.91022109985352 C -462.1561279296875 57.32682800292969 -458.433837890625 64.18411254882812 -455.4276123046875 71.29179382324219 C -452.3656005859375 78.53189849853516 -450.0137023925781 86.10832977294922 -448.4373779296875 93.810546875 C -446.8200378417969 101.7158660888672 -445.9999694824219 109.8544692993164 -445.9999694824219 117.9999008178711 C -445.9999694824219 126.1461868286133 -446.8200378417969 134.2847595214844 -448.4374084472656 142.1895141601562 C -450.012939453125 149.890869140625 -452.3647766113281 157.4670867919922 -455.4275512695312 164.7078247070312 C -458.4329223632812 171.8147583007812 -462.1551208496094 178.6719360351562 -466.4910278320312 185.0892944335938 C -470.7811584472656 191.4415435791016 -475.7118225097656 197.4176940917969 -481.1466674804688 202.8524780273438 C -486.5768127441406 208.2835388183594 -492.5533142089844 213.2145080566406 -498.9103393554688 217.5087890625 C -505.3280639648438 221.8448944091797 -512.1851806640625 225.5670776367188 -519.2916870117188 228.5722198486328 C -526.5348510742188 231.6357269287109 -534.1110229492188 233.9872589111328 -541.8099365234375 235.5615844726562 C -549.7120971679688 237.1796875 -557.8504638671875 238.0000152587891 -566.0001220703125 238.0000152587891 Z M -565.4996337890625 190.1706237792969 C -562.4578857421875 208.7545318603516 -545.9031372070312 223.0007171630859 -525.9996337890625 223.0007171630859 C -503.9434814453125 223.0007171630859 -485.99951171875 205.5052947998047 -485.99951171875 184.0005035400391 C -485.99951171875 162.4957275390625 -503.9434814453125 145.0002899169922 -525.9996337890625 145.0002899169922 C -545.9031372070312 145.0002899169922 -562.4578857421875 159.2464904785156 -565.4996337890625 177.8303833007812 C -568.5414428710938 159.2464904785156 -585.09619140625 145.0002899169922 -604.9998168945312 145.0002899169922 C -608.5052490234375 145.0002899169922 -611.9061889648438 145.4420928955078 -615.1483154296875 146.2718353271484 C -603.6714477539062 139.4090270996094 -595.9993286132812 127.0617294311523 -595.9993286132812 113.0004043579102 C -595.9993286132812 91.49561309814453 -613.9432373046875 74.00022125244141 -635.9993896484375 74.00022125244141 C -658.0555419921875 74.00022125244141 -675.99951171875 91.49561309814453 -675.99951171875 113.0004043579102 C -675.99951171875 134.5051879882812 -658.0555419921875 152.0006103515625 -635.9993896484375 152.0006103515625 C -632.493896484375 152.0006103515625 -629.0924682617188 151.5587158203125 -625.8502197265625 150.7289733886719 C -637.326904296875 157.5917816162109 -644.9990234375 169.9391784667969 -644.9990234375 184.0005035400391 C -644.9990234375 205.5052947998047 -627.055419921875 223.0007171630859 -604.9998168945312 223.0007171630859 C -585.09619140625 223.0007171630859 -568.5414428710938 208.7545318603516 -565.4996337890625 190.1706237792969 Z M -495.9990234375 72.00040435791016 C -518.0551147460938 72.00040435791016 -535.9990844726562 89.49579620361328 -535.9990844726562 111.0005798339844 C -535.9990844726562 132.50537109375 -518.0551147460938 150.0007934570312 -495.9990234375 150.0007934570312 C -473.943359375 150.0007934570312 -455.9997863769531 132.50537109375 -455.9997863769531 111.0005798339844 C -455.9997863769531 89.49579620361328 -473.943359375 72.00040435791016 -495.9990234375 72.00040435791016 Z M -566.0001220703125 7.99961519241333 C -588.0562744140625 7.99961519241333 -606.000244140625 25.49500846862793 -606.000244140625 46.99979400634766 C -606.000244140625 68.50457763671875 -588.0562744140625 86.00000762939453 -566.0001220703125 86.00000762939453 C -543.9439697265625 86.00000762939453 -526 68.50457763671875 -526 46.99979400634766 C -526 25.49500846862793 -543.9439697265625 7.99961519241333 -566.0001220703125 7.99961519241333 Z" stroke="none"/>
      <path d="M -566.0001220703125 233.0000305175781 C -558.1868286132812 233.0000305175781 -550.3859252929688 232.2138977050781 -542.8116455078125 230.6629791259766 C -538.9506225585938 229.8734588623047 -535.1215209960938 228.8797760009766 -531.353759765625 227.6910858154297 C -546.0914306640625 225.9752044677734 -558.6663818359375 217.2665100097656 -565.4996948242188 205.0652770996094 C -572.4473876953125 217.4707183837891 -585.3321533203125 226.2658843994141 -600.3890991210938 227.7715148925781 C -596.703369140625 228.9249114990234 -592.9605712890625 229.8915405273438 -589.1864624023438 230.6634063720703 C -581.6126708984375 232.2138519287109 -573.8116455078125 233.0000305175781 -566.0001220703125 233.0000305175781 M -647.1065063476562 199.5271301269531 C -648.9756469726562 194.6966857910156 -649.9990234375 189.4632415771484 -649.9990234375 184.00048828125 C -649.9990234375 173.7398681640625 -646.3889770507812 164.2888031005859 -640.3450317382812 156.7971038818359 C -662.4957275390625 154.7119140625 -680.0056762695312 136.8586273193359 -680.9586181640625 114.8877334594727 C -680.9863891601562 115.9245834350586 -681.0003051757812 116.9624557495117 -681.0003051757812 117.9999008178711 C -681.0003051757812 125.804069519043 -680.2139282226562 133.6056518554688 -678.6635131835938 141.1865692138672 C -677.1532592773438 148.5648193359375 -674.9000244140625 155.823486328125 -671.9666748046875 162.7602386474609 C -669.0860595703125 169.5708618164062 -665.5193481445312 176.1419067382812 -661.3658447265625 182.2906494140625 C -657.253662109375 188.3777770996094 -652.52685546875 194.1064910888672 -647.316650390625 199.3174896240234 C -647.2467651367188 199.3873748779297 -647.1765747070312 199.4574127197266 -647.1065063476562 199.5271301269531 M -483.3054504394531 197.91650390625 C -478.6376037597656 193.0867156982422 -474.3811645507812 187.8384094238281 -470.6340026855469 182.2901153564453 C -466.4789428710938 176.1403198242188 -462.9122619628906 169.5697326660156 -460.0325317382812 162.7599792480469 C -457.0983276367188 155.8231964111328 -454.8452758789062 148.565185546875 -453.3359680175781 141.1872406005859 C -451.7859191894531 133.6117706298828 -451 125.8104400634766 -451 117.9999008178711 C -451 116.5517959594727 -451.0270385742188 115.1038284301758 -451.0809326171875 113.6576766967773 C -452.4165344238281 135.492919921875 -470.1120910644531 153.0872802734375 -492.3148498535156 154.8547668457031 C -485.2774353027344 162.6219635009766 -480.99951171875 172.8321228027344 -480.99951171875 184.00048828125 C -480.99951171875 188.8620300292969 -481.8095703125 193.5406036376953 -483.3054504394531 197.91650390625 M -565.4996948242188 162.9357299804688 C -558.4097290039062 150.2762756347656 -545.1382446289062 141.3766174316406 -529.6837158203125 140.1463623046875 C -536.7211303710938 132.3791351318359 -540.9990844726562 122.1689453125 -540.9990844726562 111.0005645751953 C -540.9990844726562 86.73877716064453 -520.8121337890625 67.00040435791016 -495.9990539550781 67.00040435791016 C -474.9861145019531 67.00040435791016 -457.2906188964844 81.15755462646484 -452.3638000488281 100.2285461425781 C -452.6448364257812 98.41252899169922 -452.9689025878906 96.60662841796875 -453.3358154296875 94.81302642822266 C -454.8460388183594 87.43406677246094 -457.0991516113281 80.17560577392578 -460.0326538085938 73.23948669433594 C -462.9130249023438 66.4293212890625 -466.4798583984375 59.85844421386719 -470.6343688964844 53.70915222167969 C -474.7494201660156 47.61773300170898 -479.4757995605469 41.88927459716797 -484.6822204589844 36.68285751342773 C -489.8872985839844 31.47773361206055 -495.6162109375 26.75098419189453 -501.7098999023438 22.63381767272949 C -507.8546752929688 18.48210906982422 -514.4254760742188 14.91560935974121 -521.2391357421875 12.03365039825439 C -528.1773071289062 9.099650382995605 -535.4359130859375 6.846400737762451 -542.8121337890625 5.336775779724121 C -550.3349609375 3.797993183135986 -558.0744018554688 3.011957168579102 -565.819580078125 2.999958276748657 C -541.0896606445312 3.096011400222778 -521 22.7972583770752 -521 46.99981689453125 C -521 71.26161193847656 -541.1869506835938 90.99998474121094 -566.0001220703125 90.99998474121094 C -590.8132934570312 90.99998474121094 -611.000244140625 71.26161193847656 -611.000244140625 46.99981689453125 C -611.000244140625 22.7972583770752 -590.91064453125 3.096011400222778 -566.1806640625 2.999958276748657 C -573.9242553710938 3.011957883834839 -581.6636962890625 3.798032283782959 -589.1867065429688 5.336483955383301 C -596.563720703125 6.846484184265137 -603.8221435546875 9.099734306335449 -610.7589721679688 12.03310871124268 C -617.5738525390625 14.91606712341309 -624.1453857421875 18.48285865783691 -630.2898559570312 22.63348388671875 C -636.3834228515625 26.7511100769043 -642.1122436523438 31.47802543640137 -647.3165893554688 36.68227767944336 C -652.5234375 41.89006805419922 -657.2505493164062 47.61906814575195 -661.365478515625 53.70869064331055 C -665.5181884765625 59.85660934448242 -669.0850219726562 66.42794036865234 -671.9663696289062 73.23886108398438 C -674.9004516601562 80.17736053466797 -677.1536865234375 87.43594360351562 -678.6631469726562 94.81177520751953 C -679.3665161132812 98.25077819824219 -679.9126586914062 101.7353210449219 -680.2994995117188 105.2443008422852 C -676.5411376953125 84.66911315917969 -658.106201171875 69.00023651123047 -635.9993896484375 69.00023651123047 C -611.1862182617188 69.00023651123047 -590.9993286132812 88.73860931396484 -590.9993286132812 113.0004043579102 C -590.9993286132812 123.2610168457031 -594.6094970703125 132.7121734619141 -600.653564453125 140.2038726806641 C -585.4824829101562 141.6320190429688 -572.4882202148438 150.4573822021484 -565.4996948242188 162.9357299804688 M -566.0001220703125 243.0000305175781 C -574.4840087890625 243.0000305175781 -582.9598388671875 242.1454772949219 -591.1920166015625 240.4602355957031 C -599.2124633789062 238.8199462890625 -607.1065063476562 236.3696441650391 -614.655029296875 233.1773986816406 C -622.0588989257812 230.0459899902344 -629.202880859375 226.1683197021484 -635.8887329101562 221.6520233154297 C -642.5093994140625 217.1791076660156 -648.7335205078125 212.0436096191406 -654.3882446289062 206.3880310058594 C -660.0482788085938 200.7270660400391 -665.183837890625 194.5029449462891 -669.6522216796875 187.8884887695312 C -674.1670532226562 181.2048645019531 -678.0444946289062 174.0611572265625 -681.1766967773438 166.6557312011719 C -684.3673706054688 159.1106109619141 -686.8179321289062 151.2162322998047 -688.4603881835938 143.1918182373047 C -690.145751953125 134.9514007568359 -691.0003051757812 126.4756088256836 -691.0003051757812 117.9999008178711 C -691.0003051757812 109.5241928100586 -690.145751953125 101.0484008789062 -688.4603881835938 92.8079833984375 C -686.8182983398438 84.78440093994141 -684.36767578125 76.88998413085938 -681.1766967773438 69.34407043457031 C -678.04345703125 61.93765258789062 -674.1660766601562 54.79394149780273 -669.6522216796875 48.1113166809082 C -665.1801147460938 41.49319076538086 -660.0445556640625 35.26906585693359 -654.3882446289062 29.61181831359863 C -648.7334594726562 23.95710945129395 -642.5093383789062 18.82156753540039 -635.8887329101562 14.34781742095947 C -629.2083129882812 9.835108757019043 -622.0642700195312 5.957692623138428 -614.655029296875 2.823317527770996 C -607.1093139648438 -0.3675575256347656 -599.2152099609375 -2.818140745162964 -591.1920166015625 -4.460391044616699 C -574.7081909179688 -7.831337928771973 -557.2848510742188 -7.830609321594238 -540.8082275390625 -4.460391044616699 C -532.784423828125 -2.818224191665649 -524.8900146484375 -0.3675991892814636 -517.3442993164062 2.823317527770996 C -509.9352416992188 5.957108974456787 -502.79150390625 9.834484100341797 -496.1115112304688 14.34781742095947 C -489.4906921386719 18.82110977172852 -483.2662353515625 23.95665168762207 -477.6111145019531 29.61181831359863 C -471.9546203613281 35.26831817626953 -466.8193664550781 41.4924430847168 -462.3479919433594 48.1113166809082 C -457.832275390625 54.7952766418457 -453.9545288085938 61.93902587890625 -450.8225708007812 69.34407043457031 C -447.6319885253906 76.88810729980469 -445.1814270019531 84.78248596191406 -443.5389099121094 92.8079833984375 C -441.8542175292969 101.0426483154297 -441 109.5184860229492 -441 117.9999008178711 C -441 126.4822311401367 -441.8542175292969 134.9580688476562 -443.5389099121094 143.1918182373047 C -445.1805419921875 151.2163543701172 -447.6311340332031 159.1107788085938 -450.8225708007812 166.6557312011719 C -453.95361328125 174.0598602294922 -457.8313598632812 181.2035675048828 -462.3479919433594 187.8884887695312 C -466.8158264160156 194.5038604736328 -471.9510803222656 200.7279815673828 -477.6111145019531 206.3880310058594 C -483.26611328125 212.0439453125 -489.4905395507812 217.1794891357422 -496.1115112304688 221.6520233154297 C -502.7965698242188 226.1687774658203 -509.9403381347656 230.0464782714844 -517.3442993164062 233.1773986816406 C -524.891357421875 236.3694458007812 -532.7857666015625 238.8197326660156 -540.8082275390625 240.4602355957031 C -549.0385131835938 242.1454772949219 -557.5142822265625 243.0000305175781 -566.0001220703125 243.0000305175781 Z M -525.9996337890625 150.0003204345703 C -545.2987060546875 150.0003204345703 -560.9996948242188 165.2527313232422 -560.9996948242188 184.00048828125 C -560.9996948242188 202.7482757568359 -545.2987060546875 218.000732421875 -525.9996337890625 218.000732421875 C -506.7005004882812 218.000732421875 -490.99951171875 202.7482757568359 -490.99951171875 184.00048828125 C -490.99951171875 165.2527313232422 -506.7005004882812 150.0003204345703 -525.9996337890625 150.0003204345703 Z M -604.9998168945312 150.0003204345703 C -624.2984619140625 150.0003204345703 -639.9990234375 165.2527313232422 -639.9990234375 184.00048828125 C -639.9990234375 202.7482757568359 -624.2984619140625 218.000732421875 -604.9998168945312 218.000732421875 C -585.70068359375 218.000732421875 -569.9996337890625 202.7482757568359 -569.9996337890625 184.00048828125 C -569.9996337890625 165.2527313232422 -585.70068359375 150.0003204345703 -604.9998168945312 150.0003204345703 Z M -635.9993896484375 79.00023651123047 C -655.2985229492188 79.00023651123047 -670.99951171875 94.25260925292969 -670.99951171875 113.0004043579102 C -670.99951171875 131.7481994628906 -655.2985229492188 147.0006103515625 -635.9993896484375 147.0006103515625 C -616.7002563476562 147.0006103515625 -600.9993286132812 131.7481994628906 -600.9993286132812 113.0004043579102 C -600.9993286132812 94.25260925292969 -616.7002563476562 79.00023651123047 -635.9993896484375 79.00023651123047 Z M -495.9990539550781 77.00040435791016 C -515.298095703125 77.00040435791016 -530.9990844726562 92.25281524658203 -530.9990844726562 111.0005645751953 C -530.9990844726562 129.7483520507812 -515.298095703125 145.0008239746094 -495.9990539550781 145.0008239746094 C -476.7004089355469 145.0008239746094 -460.9998168945312 129.7483520507812 -460.9998168945312 111.0005645751953 C -460.9998168945312 92.25281524658203 -476.7004089355469 77.00040435791016 -495.9990539550781 77.00040435791016 Z M -566.0001220703125 12.99960899353027 C -585.2992553710938 12.99960899353027 -601.000244140625 28.25202560424805 -601.000244140625 46.99981689453125 C -601.000244140625 65.74761199951172 -585.2992553710938 80.99998474121094 -566.0001220703125 80.99998474121094 C -546.7009887695312 80.99998474121094 -531 65.74761199951172 -531 46.99981689453125 C -531 28.25202560424805 -546.7009887695312 12.99960899353027 -566.0001220703125 12.99960899353027 Z" stroke="none" fill="#e21717"/>
    </g>
    <line id="Line_1" data-name="Line 1" x2="125" transform="translate(143.5 265.5)" fill="none" stroke="#e21717" stroke-linecap="round" stroke-width="20"/>
  </g>
</svg>
